# xmcd
#
# Track frame offsets:
#	150
#	12827
#	24938
#	38151
#	48898
#	61716
#	73902
#	85979
#	98920
#	109993
#	121850
#	132740
#	143319
#	155155
#	167069
#	179342
#	189752
#	200029
#	212230
#	222871
#	234799
#	245310
#	255099
#	266541
#	277786
#
# Disc length: 3837 seconds
#
# Revision: 0
# Processed by: cddbd v1.5.1PL2 Copyright (c) Steve Scherf et al.
# Submitted via: audiograbber 1.83.01
#
DISCID=530efb19
DTITLE=Various Artist - Swingbillies CD2
DYEAR=2005
DGENRE=Swingbilly
TTITLE0=Johnny Bond - Smoke, Smoke, Smoke
TTITLE1=Spade Cooley - Three Way Boogie
TTITLE2=Curly Williams - Georgia Boogie
TTITLE3=Bob Wills - Cowboy Stomp
TTITLE4=Johnny Bond - Mean Mama Boogie
TTITLE5=Spade Cooley - Yodeling Polka
TTITLE6=Al Dexter - Saturday Night Boogie
TTITLE7=Louises Massey - Squeeze Polka Boogie
TTITLE8=Andy Reynolds - Beer Bottle Mama
TTITLE9=Curley Williams - Fiddlin' Boogie
TTITLE10=Johnny Hicks - Get Your Kicks
TTITLE11=Smiley Maxedon - Give Ma A Red Hot Mama And A Ice Cold Beer
TTITLE12=Red Foley - Hot Toddy
TTITLE13=Billy Briggs - The Sissy Song
TTITLE14=Jimmy Myers - Drunk Man's Wiggle
TTITLE15=R.D. Hendon - Music Makin' Mama From Tennessee
TTITLE16=Johnny Tyler - Devils Hot Rod
TTITLE17=Jimmy Johnson - Salt Your Pillow Down
TTITLE18=Billy Star - Hound Dog
TTITLE19=Eddie Hill - Steamboat Stomp
TTITLE20=Frank Simon - Sugar Plum Boogie
TTITLE21=T. Texas Tyler - Hot Rod Rag
TTITLE22=Maddox Bros. And Rose - Bring It Down To My House
TTITLE23=Cotton Thomson - How Long
TTITLE24=Lefty Frizell - My Baby's Just Like Money
EXTD=
EXTT0=
EXTT1=
EXTT2=
EXTT3=
EXTT4=
EXTT5=
EXTT6=
EXTT7=
EXTT8=
EXTT9=
EXTT10=
EXTT11=
EXTT12=
EXTT13=
EXTT14=
EXTT15=
EXTT16=
EXTT17=
EXTT18=
EXTT19=
EXTT20=
EXTT21=
EXTT22=
EXTT23=
EXTT24=
PLAYORDER=
